<svg width="18" height="16" viewBox="0 0 18 16" fill="none" xmlns="http://www.w3.org/2000/svg">
<path d="M17.8417 7.54375C16.2412 4.23719 13.0726 2 9.44443 2C5.81628 2 2.64679 4.23875 1.04713 7.54406C0.97962 7.68547 0.944443 7.8417 0.944443 8.00016C0.944443 8.15861 0.97962 8.31484 1.04713 8.45625C2.64767 11.7628 5.81628 14 9.44443 14C13.0726 14 16.2421 11.7612 17.8417 8.45594C17.9092 8.31453 17.9444 8.1583 17.9444 7.99984C17.9444 7.84139 17.9092 7.68516 17.8417 7.54375ZM9.44443 12.5C8.60386 12.5 7.78216 12.2361 7.08325 11.7416C6.38434 11.2471 5.83961 10.5443 5.51794 9.72208C5.19627 8.89981 5.1121 7.99501 5.27609 7.12209C5.44008 6.24918 5.84485 5.44736 6.43922 4.81802C7.0336 4.18868 7.79087 3.7601 8.61529 3.58647C9.43971 3.41283 10.2942 3.50195 11.0708 3.84254C11.8474 4.18314 12.5112 4.75991 12.9782 5.49993C13.4452 6.23995 13.6944 7.10998 13.6944 8C13.6947 8.59103 13.585 9.17632 13.3715 9.72242C13.158 10.2685 12.8449 10.7647 12.4502 11.1826C12.0555 11.6005 11.5869 11.932 11.0712 12.158C10.5554 12.3841 10.0026 12.5003 9.44443 12.5ZM9.44443 5C9.19153 5.00374 8.94027 5.04358 8.69743 5.11844C8.8976 5.40646 8.99366 5.7609 8.96818 6.11748C8.9427 6.47406 8.79738 6.80917 8.55857 7.06203C8.31975 7.31489 8.00326 7.46876 7.66649 7.49574C7.32972 7.52271 6.99497 7.42101 6.72295 7.20906C6.56805 7.81331 6.59601 8.45377 6.8029 9.04031C7.00978 9.62685 7.38518 10.1299 7.87624 10.4787C8.3673 10.8275 8.94931 11.0045 9.54034 10.9847C10.1314 10.965 10.7017 10.7495 11.171 10.3685C11.6402 9.9876 11.9849 9.46044 12.1564 8.86125C12.3279 8.26205 12.3176 7.62099 12.127 7.0283C11.9364 6.43561 11.5751 5.92114 11.0938 5.55728C10.6126 5.19343 10.0358 4.99853 9.44443 5Z" fill="#D6CCCC"/>
</svg>
