<svg width="31" height="34" viewBox="0 0 31 34" fill="none" xmlns="http://www.w3.org/2000/svg">
<path d="M30 19.5266C30.003 23.0362 28.5295 26.4081 25.8935 28.9239C23.2575 31.4397 19.6674 32.9005 15.8881 32.9951C12.1088 33.0897 8.43917 31.8105 5.66099 29.4302C2.88281 27.0499 1.21577 23.7566 1.01506 20.252C1.00279 20.0115 0.998016 19.7703 1.00074 19.5285C0.993027 16.0558 2.43941 12.7161 5.0345 10.2148C5.15005 10.1038 5.29353 10.0213 5.452 9.97458C5.61048 9.92789 5.77897 9.91854 5.94231 9.94736C6.10565 9.97618 6.2587 10.0423 6.38767 10.1397C6.51665 10.2371 6.6175 10.3627 6.68114 10.5053C7.26002 11.8155 8.0639 13.0307 9.06007 14.1017C10.283 12.0811 10.9241 9.80192 10.9215 7.48426C10.9248 5.69998 10.5466 3.93283 9.80873 2.28526C9.7364 2.1239 9.71459 1.94687 9.74582 1.77452C9.77704 1.60218 9.86003 1.44151 9.98524 1.31099C10.1105 1.18048 10.2728 1.08542 10.4536 1.03674C10.6344 0.988065 10.8264 0.987748 11.0074 1.03583C14.7719 2.01512 18.1098 4.06755 20.5497 6.90321C23.2141 9.97943 24.6636 13.8097 24.6571 17.7569C24.6585 17.8822 24.653 18.0063 24.6407 18.1291C25.909 17.7493 27.1138 17.2025 28.2143 16.5056C28.3516 16.4182 28.5103 16.3641 28.676 16.3482C28.8416 16.3323 29.0089 16.3551 29.1626 16.4146C29.3163 16.474 29.4515 16.5682 29.556 16.6886C29.6604 16.8089 29.7308 16.9517 29.7607 17.1037C29.9202 17.9012 30 18.7158 30 19.5285" fill="#FF7A87"/>
<path d="M30 19.5266C30.003 23.0362 28.5295 26.4081 25.8935 28.9239C23.2575 31.4397 19.6674 32.9005 15.8881 32.9951C12.1088 33.0897 8.43917 31.8105 5.66099 29.4302C2.88281 27.0499 1.21577 23.7566 1.01506 20.252C1.00279 20.0115 0.998016 19.7703 1.00074 19.5285C0.993027 16.0558 2.43941 12.7161 5.0345 10.2148C5.15005 10.1038 5.29353 10.0213 5.452 9.97458C5.61048 9.92789 5.77897 9.91854 5.94231 9.94736C6.10565 9.97618 6.2587 10.0423 6.38767 10.1397C6.51665 10.2371 6.6175 10.3627 6.68114 10.5053C7.26002 11.8155 8.0639 13.0307 9.06007 14.1017C10.283 12.0811 10.9241 9.80192 10.9215 7.48426C10.9248 5.69998 10.5466 3.93283 9.80873 2.28526C9.7364 2.1239 9.71459 1.94687 9.74581 1.77452C9.77704 1.60218 9.86003 1.44151 9.98524 1.31099C10.1105 1.18048 10.2728 1.08542 10.4536 1.03674C10.6344 0.988065 10.8264 0.987748 11.0074 1.03583C14.7719 2.01512 18.1098 4.06755 20.5497 6.90321C23.2141 9.97943 24.6636 13.8097 24.6571 17.7569C24.6585 17.8822 24.653 18.0063 24.6407 18.1291C25.909 17.7493 27.1138 17.2025 28.2143 16.5056C28.3516 16.4182 28.5103 16.3641 28.676 16.3482C28.8416 16.3323 29.0089 16.3551 29.1626 16.4146C29.3163 16.474 29.4515 16.5682 29.556 16.6886C29.6604 16.8089 29.7308 16.9517 29.7607 17.1037C29.9202 17.9012 30 18.7158 30 19.5285" stroke="#191919" stroke-linecap="round" stroke-linejoin="round"/>
<path d="M16.1188 15.0387C16.2236 14.9993 16.3407 14.9897 16.4526 15.0112C16.5644 15.0327 16.6651 15.0843 16.7396 15.1581C16.8141 15.232 16.8585 15.3243 16.8661 15.4213C16.8737 15.5182 16.8442 15.6147 16.782 15.6963C16.1331 16.5595 15.7663 17.5531 15.719 18.5757C15.6716 19.5983 15.9454 20.6132 16.5123 21.5168C17.1951 21.1097 17.7278 20.548 18.0497 19.8959C18.0746 19.8347 18.1148 19.7787 18.1674 19.7318C18.2201 19.6848 18.284 19.6479 18.3549 19.6237C18.4258 19.5994 18.502 19.5883 18.5784 19.5911C18.6547 19.5939 18.7295 19.6105 18.7977 19.6399C19.8275 20.1023 20.6768 20.8078 21.2426 21.6709C21.8084 22.5341 22.0665 23.5177 21.9854 24.5026C22.0014 25.2284 21.8443 25.9495 21.5236 26.6227C21.2029 27.2959 20.7251 27.9074 20.119 28.4206C19.5128 28.9337 18.7906 29.338 17.9957 29.6092C17.2007 29.8804 16.3493 30.013 15.4925 29.999C14.6256 29.9955 13.7683 29.8457 12.9705 29.5584C12.1728 29.271 11.4507 28.8518 10.8464 28.3253C10.242 27.7989 9.76767 27.1756 9.45095 26.4921C9.13424 25.8085 8.98154 25.0783 9.00178 24.3442C9.03206 22.3826 9.71627 20.4682 10.9755 18.8217C12.2347 17.1753 14.0177 15.8639 16.1188 15.0387Z" fill="#FFEF5E" stroke="#191919" stroke-linecap="round" stroke-linejoin="round"/>
</svg>
