<?xml version="1.0" standalone="no"?>
<!DOCTYPE svg PUBLIC "-//W3C//DTD SVG 20010904//EN"
 "http://www.w3.org/TR/2001/REC-SVG-20010904/DTD/svg10.dtd">
<svg version="1.0" xmlns="http://www.w3.org/2000/svg"
 width="300.000000pt" height="300.000000pt" viewBox="0 0 300.000000 300.000000"
 preserveAspectRatio="xMidYMid meet">
<metadata>
Created by potrace 1.10, written by Peter Selinger 2001-2011
</metadata>
<g transform="translate(0.000000,300.000000) scale(0.100000,-0.100000)"
fill="#000000" stroke="none">
<path d="M1306 2709 c-504 -70 -893 -431 -1002 -934 -23 -108 -24 -350 0 -455
95 -425 368 -737 770 -879 92 -33 231 -61 297 -61 38 0 39 -1 39 -38 0 -21 5
-43 12 -50 9 -9 165 -12 638 -12 595 0 628 1 643 18 15 17 17 73 17 595 0 639
3 607 -66 607 l-34 0 0 89 c0 283 -137 592 -356 802 -162 154 -356 256 -579
304 -89 19 -290 27 -379 14z m369 -109 c317 -62 592 -275 741 -570 70 -140
103 -266 111 -422 l6 -108 -45 0 -45 0 -7 92 c-4 50 -13 121 -21 157 -80 375
-361 662 -743 758 -102 26 -351 23 -454 -5 -184 -50 -321 -127 -448 -252 -136
-134 -221 -280 -272 -468 -32 -117 -31 -344 1 -467 74 -288 265 -523 526 -650
106 -52 213 -83 313 -92 l72 -6 0 -50 0 -50 -65 7 c-247 25 -516 159 -679 337
-400 438 -384 1097 37 1506 264 256 605 356 972 283z m-3 -189 c387 -101 652
-433 670 -838 l4 -73 -73 0 -73 0 0 33 c-1 83 -87 193 -178 227 -169 63 -350
-42 -378 -219 l-7 -41 -101 0 c-66 0 -106 -4 -114 -12 -9 -9 -12 -116 -12
-421 l0 -410 -63 7 c-305 31 -596 252 -716 545 -49 117 -66 211 -65 351 2 150
23 242 88 375 127 263 354 434 649 491 96 18 269 11 369 -15z m325 -686 c79
-24 162 -121 163 -192 0 -12 12 -35 26 -52 l26 -31 -202 0 c-204 0 -230 -4
-257 -39 -9 -11 -12 -72 -13 -205 l0 -190 -28 27 c-26 25 -34 27 -119 27 -87
0 -93 -1 -112 -26 -19 -24 -21 -40 -21 -157 0 -120 2 -133 22 -154 19 -21 30
-23 109 -23 80 0 90 2 118 26 l31 26 0 -185 c0 -169 2 -186 20 -210 11 -14 20
-30 20 -36 0 -13 -297 -16 -316 -3 -6 4 -14 16 -18 28 -3 11 -17 31 -31 44
l-25 23 25 23 c36 33 36 110 0 144 -22 21 -24 25 -9 33 40 23 44 60 44 451 0
332 2 375 16 380 9 3 50 6 93 6 68 0 80 3 98 23 12 12 24 38 28 57 19 93 84
163 175 191 40 12 83 10 137 -6z m488 -265 c36 0 48 5 69 30 l25 31 17 -26 c9
-14 27 -28 40 -31 14 -4 29 -14 34 -24 10 -19 14 -402 4 -412 -3 -3 -16 5 -29
18 -22 22 -33 24 -113 24 -82 0 -90 -2 -112 -25 -18 -19 -26 -22 -32 -13 -4 7
-8 94 -8 194 0 180 0 181 -25 204 l-25 24 31 32 32 33 24 -30 c20 -24 32 -29
68 -29z m-142 -567 l-3 -518 -280 -3 -280 -2 0 520 0 520 283 0 282 0 -2 -517z
m-653 -3 l0 -140 -95 0 -95 0 0 140 0 140 95 0 95 0 0 -140z m940 0 l0 -140
-95 0 -95 0 0 140 0 140 95 0 95 0 0 -140z m-96 -180 c78 0 89 2 111 24 13 13
26 21 29 18 3 -3 6 -94 6 -203 0 -166 -2 -200 -16 -213 -13 -13 -42 -16 -164
-16 -82 0 -151 4 -154 9 -3 4 3 16 14 26 19 17 20 32 20 196 0 211 2 220 39
185 25 -24 34 -26 115 -26z"/>
<path d="M1344 2322 c-131 -62 -198 -203 -160 -335 58 -198 297 -270 451 -135
88 77 118 196 79 311 -19 55 -82 124 -139 152 -58 28 -177 32 -231 7z m230
-56 c131 -77 157 -256 53 -364 -114 -119 -300 -97 -383 44 -23 39 -28 60 -28
113 0 107 56 188 158 228 50 20 148 10 200 -21z"/>
<path d="M897 1766 c-63 -23 -116 -64 -147 -113 -126 -199 27 -451 261 -430
277 25 346 401 96 528 -53 28 -157 35 -210 15z m157 -40 c67 -20 114 -61 142
-120 81 -174 -52 -365 -239 -342 -182 21 -274 234 -163 378 63 84 158 115 260
84z"/>
<path d="M1937 1062 c-14 -16 -17 -43 -17 -174 0 -137 2 -157 18 -171 10 -10
23 -17 28 -17 17 0 267 155 278 173 8 12 8 22 0 35 -13 21 -252 170 -275 171
-9 1 -23 -7 -32 -17z m148 -94 c64 -37 105 -67 105 -77 0 -9 -44 -42 -106 -80
-84 -51 -108 -61 -115 -50 -17 27 -10 269 7 269 3 0 52 -28 109 -62z"/>
</g>
</svg>
